<svg width="48" height="44" viewBox="0 0 48 44" fill="none" xmlns="http://www.w3.org/2000/svg">
<g id="Group">
<path id="Vector" d="M41.3749 36.5284L35.452 29.2747C38.226 24.72 38.9008 19.1907 37.2889 14.0174C37.1389 13.5301 36.6141 13.2677 36.1268 13.4177C35.6394 13.5676 35.3583 14.0924 35.527 14.5798C37.0452 19.4156 36.3329 24.5888 33.5589 28.8061L33.5027 28.881C33.3152 29.2184 33.334 29.6308 33.5776 29.9307L39.9317 37.6905C39.9317 37.6905 40.0254 37.803 40.0442 37.803C40.569 38.4027 40.569 39.2462 40.0629 39.8647C40.0442 39.8835 40.0442 39.9022 40.0254 39.9022L39.8942 40.0334C39.2944 40.5395 38.4135 40.5395 37.7949 39.9959C37.7575 39.9585 37.7387 39.9397 37.7012 39.9022L29.9414 33.5669C29.6228 33.3045 29.1729 33.2858 28.8355 33.5107L28.7606 33.5669C22.2191 37.8404 13.4659 36.9782 7.8803 31.5051C7.84282 31.4489 7.82407 31.3927 7.78659 31.3552C1.26385 24.8699 1.26385 14.2799 7.76784 7.77586C14.2718 1.27186 24.8619 1.27186 31.3659 7.77586C31.4034 7.81335 31.4596 7.85083 31.5159 7.86958C31.5346 7.88832 31.5721 7.92581 31.5908 7.94455C31.9095 8.33817 32.5093 8.3944 32.9029 8.05701C33.2965 7.73837 33.3527 7.13858 33.0153 6.74497C32.9404 6.65125 32.8279 6.53879 32.7154 6.42633C25.4992 -0.771179 13.747 -0.82741 6.47454 6.3701C6.4558 6.38884 6.41831 6.40758 6.39957 6.44507C3.40061 9.44403 1.52626 13.4364 1.09515 17.6537C0.907719 19.4906 1.00144 21.3274 1.33882 23.108C2.05107 26.763 3.81296 30.0806 6.4558 32.7235C12.5099 38.7589 22.0129 39.8647 29.2854 35.4413L36.4829 41.3267C36.5204 41.3642 36.5766 41.4205 36.6141 41.4579C37.2701 42.0202 38.0573 42.2827 38.8446 42.2827C39.6505 42.2827 40.4565 42.0015 41.1125 41.4392L41.4312 41.1393C41.4874 41.0831 41.5249 41.0268 41.5624 40.9519C42.5558 39.6586 42.5183 37.8592 41.4499 36.6034C41.4312 36.5846 41.3937 36.5471 41.3749 36.5284Z" fill="white" stroke="white" stroke-width="2"/>
<path id="Vector_2" d="M46.8481 1.57176C46.6606 1.30935 46.342 1.15941 46.0046 1.19689L39.9879 1.83417C39.6506 1.87166 39.3694 2.07784 39.2382 2.37773C39.107 2.67763 39.1445 3.03376 39.3319 3.29617L40.6627 5.11429L19.52 20.3528C19.2951 20.5027 19.1639 20.7651 19.1452 21.0275L18.5829 28.2438L9.43603 19.3031C9.2486 19.1157 8.98619 19.022 8.72378 19.0407L6.04346 19.2281C5.53739 19.2656 5.14377 19.6967 5.18126 20.2215C5.21875 20.7276 5.66859 21.1212 6.17466 21.0837L8.44263 20.9338L18.7141 30.9616C18.8828 31.1303 19.1264 31.224 19.3701 31.224C19.4826 31.224 19.595 31.2052 19.6887 31.1678C20.0261 31.0366 20.251 30.7367 20.2885 30.3805L20.982 21.6273L41.8061 6.65125L42.9494 8.22571C43.1181 8.46937 43.3993 8.60058 43.6992 8.60058C43.7366 8.60058 43.7741 8.60058 43.7929 8.60058C44.1303 8.56309 44.4114 8.35691 44.5426 8.05702L46.9793 2.52768C47.0917 2.1903 47.0542 1.85292 46.8481 1.57176ZM43.4742 5.80779L41.8061 3.52109L44.6176 3.22119L43.4742 5.80779Z" fill="white" stroke="white"/>
</g>
</svg>
