<svg width="45" height="45" viewBox="0 0 45 45" fill="none" xmlns="http://www.w3.org/2000/svg">
<path id="Shape" d="M17.5618 38.8786C17.5605 37.5537 17.9972 36.2653 18.8042 35.2132C19.6113 34.161 20.7437 33.4038 22.0259 33.059C23.3081 32.7142 24.6685 32.8009 25.8962 33.3059C27.124 33.8108 28.1505 34.7056 28.8168 35.8517C33.4048 33.8324 35.1237 30.6631 35.1237 24.64V18.0693C35.1237 9.32597 30.1822 3.28533 22.5011 3.28533C14.82 3.28533 9.87853 9.32816 9.87853 18.0693V25.7351C9.87795 26.1706 9.7043 26.5881 9.39566 26.896C9.08703 27.2039 8.66859 27.3772 8.23211 27.3778H6.03688C4.43671 27.376 2.90256 26.7412 1.77086 25.6125C0.639167 24.4838 0.00232403 22.9534 0 21.3569L0 19.1666C0.00174205 17.5695 0.638258 16.0383 1.76995 14.9088C2.90165 13.7793 4.43613 13.1437 6.03688 13.1413H7.0862C8.74799 5.32005 14.4358 0 22.5011 0C30.5664 0 36.252 5.32005 37.9138 13.1413H38.9631C40.5635 13.1437 42.0976 13.779 43.2293 14.908C44.3609 16.0371 44.9977 17.5677 45 19.1644V21.3547C44.9983 22.9516 44.3617 24.4826 43.2299 25.6117C42.0982 26.7409 40.5637 27.376 38.9631 27.3778H38.2848C38.2001 29.9719 37.3277 32.4792 35.7832 34.5677C34.2388 36.6562 32.0949 38.2275 29.6356 39.0736C29.6097 40.671 28.9488 42.1927 27.7984 43.304C26.6479 44.4153 25.1021 45.0251 23.501 44.9992C21.8999 44.9734 20.3747 44.314 19.2609 43.1662C18.1471 42.0183 17.5359 40.4761 17.5618 38.8786ZM20.8547 38.8786C20.8547 39.4201 21.0156 39.9494 21.3171 40.3997C21.6186 40.8499 22.0472 41.2008 22.5486 41.408C23.05 41.6152 23.6018 41.6694 24.134 41.5638C24.6663 41.4582 25.1553 41.1974 25.539 40.8145C25.9228 40.4317 26.1841 39.9438 26.29 39.4128C26.3959 38.8817 26.3416 38.3312 26.1339 37.8309C25.9262 37.3307 25.5745 36.9031 25.1232 36.6023C24.672 36.3014 24.1414 36.1409 23.5987 36.1409C22.8711 36.1414 22.1735 36.4301 21.659 36.9434C21.1445 37.4567 20.8553 38.1527 20.8547 38.8786ZM38.4165 24.0946H38.9631C39.6911 24.0946 40.3893 23.8063 40.9042 23.2929C41.4192 22.7795 41.7088 22.0832 41.7094 21.3569V19.1666C41.7094 18.4403 41.4203 17.7437 40.9058 17.23C40.3912 16.7162 39.6933 16.4272 38.9653 16.4267H38.4165V24.0946ZM3.29284 19.1666V21.3569C3.29401 22.0824 3.58355 22.7779 4.09797 23.2907C4.61239 23.8035 5.30967 24.0919 6.03688 24.0924H6.58569V16.4267H6.03688C5.30891 16.4272 4.61096 16.7162 4.09642 17.23C3.58188 17.7437 3.29284 18.4403 3.29284 19.1666Z" fill="white"/>
</svg>
