<svg width="45" height="45" viewBox="0 0 45 45" fill="none" xmlns="http://www.w3.org/2000/svg">
<g id="Icons1">
<g id="Pen">
<path id="Vector" d="M44.9419 40.9756V44.9125L13.3973 44.8882L17.8114 40.9756H44.9419Z" fill="white"/>
<path id="Vector_2" d="M37.8591 0C39.4058 0 40.2082 0.120921 42.3145 1.88506C44.4648 3.6867 44.8519 5.09089 44.9419 6.65444C45.0375 8.33703 44.4695 10.3805 42.8909 11.9797L12.9315 41.9392C12.444 42.3844 12.3409 42.3601 12.0156 42.4575L2.43002 44.8535C1.0502 45.1338 -0.245254 43.8702 0.0397089 42.4641L2.43658 32.8785C2.53032 32.5654 2.56125 32.3939 2.95495 31.9627C12.9811 21.9365 22.8226 11.7219 33.0354 1.88506C34.3674 0.633666 36.3134 0 37.8591 0ZM37.8591 3.88355C37.053 3.89855 36.2674 4.23132 35.6928 4.79843L6.12797 34.3642L4.66004 40.2331L10.5299 38.7661C20.4136 28.8824 30.6076 19.2987 40.1791 9.11318C41.7483 7.40246 40.5953 4.00166 38.0175 3.88543C37.965 3.88355 37.9125 3.88261 37.8591 3.88355Z" fill="white"/>
</g>
</g>
</svg>
