<svg width="28" height="45" viewBox="0 0 28 45" fill="none" xmlns="http://www.w3.org/2000/svg">
<path id="Vector" d="M21 30.9012C21 28.935 22.1235 27.1367 23.9015 26.2575L28 24.2308L15.75 0H12.25L0 24.2308L4.0985 26.2575C5.8765 27.1367 7 28.935 7 30.9012V31.1538H3.5V45H24.5V31.1538H21V30.9012ZM5.663 23.1612L4.69525 22.6835L12.25 7.74V20.7692H15.75V7.74L23.3047 22.6817L22.337 23.1594C19.3532 24.6358 17.5 27.6023 17.5 30.9012V31.1538H10.5V30.9012C10.5 27.6023 8.64675 24.6358 5.663 23.1612ZM21 41.5385H7V34.6154H21V41.5385Z" fill="white"/>
</svg>
