<svg width="41" height="41" viewBox="0 0 41 41" fill="none" xmlns="http://www.w3.org/2000/svg">
<path id="Vector" d="M3.47555 40.4243L9.56033 34.3392C12.1186 36.014 15.1163 36.8919 18.1738 36.8618C20.6069 36.8319 23.0095 36.3151 25.2398 35.3419C27.47 34.3686 29.4829 32.9587 31.1596 31.1951C38.9814 23.3873 40.9051 3.10156 40.9912 2.24223C41.0191 1.94199 40.9804 1.63929 40.878 1.35569C40.7756 1.0721 40.6118 0.814583 40.3985 0.601486C40.1831 0.39069 39.925 0.228526 39.6417 0.125927C39.3583 0.0233278 39.0562 -0.017322 38.7558 0.006718C37.8965 0.0846531 17.6324 2.00842 9.80438 9.82859C2.485 17.1565 3.21305 26.3754 6.66047 31.4392L0.575689 37.5243C0.202116 37.9111 -0.0045951 38.4291 7.75264e-05 38.9669C0.00475015 39.5046 0.220433 40.019 0.600672 40.3993C0.98091 40.7796 1.49528 40.9952 2.033 40.9999C2.57072 41.0046 3.08876 40.7979 3.47555 40.4243ZM12.7042 12.7368C18.0036 7.43927 31.0714 5.14838 36.5963 4.4039C35.8477 9.92704 33.5672 22.9894 28.2618 28.2951C22.5338 34.0131 16.0696 33.3342 12.5361 31.3633L21.9329 21.966C22.3065 21.5792 22.5132 21.0611 22.5085 20.5233C22.5039 19.9856 22.2882 19.4712 21.908 19.0909C21.5277 18.7107 21.0133 18.495 20.4756 18.4903C19.9379 18.4856 19.4199 18.6924 19.0331 19.066L9.63826 28.4612C7.66743 24.9275 6.9886 18.4527 12.7042 12.7368Z" fill="white"/>
</svg>
