<svg width="48" height="48" viewBox="0 0 48 48" fill="none" xmlns="http://www.w3.org/2000/svg">
<path id="Vector" d="M24 48C23.7387 47.9967 23.4796 47.9503 23.2331 47.8628C15.7948 44.5571 9.57213 39.0085 5.43317 31.9908C1.29419 24.9732 -0.554646 16.8363 0.144583 8.71568C0.16852 8.25749 0.346738 7.82095 0.650121 7.47718C0.953531 7.13345 1.36425 6.90279 1.81528 6.82279C9.22068 5.69995 16.4139 3.46171 23.151 0.183967C23.4177 0.0627396 23.7072 0 24 0C24.2928 0 24.5823 0.0627396 24.849 0.183967C31.5861 3.46171 38.7794 5.69995 46.1847 6.82279C46.6358 6.90279 47.0464 7.13345 47.3498 7.47718C47.6533 7.82095 47.8316 8.25749 47.8554 8.71568C48.5546 16.8363 46.7059 24.9732 42.567 31.9908C38.428 39.0085 32.2051 44.5571 24.7669 47.8628C24.5204 47.9503 24.2613 47.9967 24 48ZM4.1707 10.5811C3.76275 17.4585 5.43744 24.2991 8.97555 30.2071C12.5137 36.1151 17.7503 40.8155 24 43.693C30.2498 40.8155 35.4865 36.1151 39.0245 30.2071C42.5626 24.2991 44.2374 17.4585 43.8293 10.5811C36.9619 9.41355 30.2887 7.29942 24 4.29894C17.7113 7.29942 11.0382 9.41355 4.1707 10.5811Z" fill="white"/>
</svg>
