<svg xmlns="http://www.w3.org/2000/svg" width="50" height="42" viewBox="0 0 50 42" fill="none">
  <path d="M47.6 39.9997C47.6 35.5877 43.3703 31.8343 37.4666 30.443M32.4 40C32.4 34.4036 25.5947 29.8666 17.2 29.8666C8.80526 29.8666 2 34.4036 2 40M32.4 22.2667C37.9964 22.2667 42.5333 17.7297 42.5333 12.1333C42.5333 6.53684 37.9964 2 32.4 2M17.2 22.2667C11.6035 22.2667 7.06666 17.7297 7.06666 12.1333C7.06666 6.53684 11.6035 2 17.2 2C22.7964 2 27.3333 6.53684 27.3333 12.1333C27.3333 17.7297 22.7964 22.2667 17.2 22.2667Z" stroke="white" stroke-width="4" stroke-linecap="round" stroke-linejoin="round"/>
</svg>