<?xml version="1.0" encoding="UTF-8"?>
<!DOCTYPE svg PUBLIC "-//W3C//DTD SVG 1.1//EN" "http://www.w3.org/Graphics/SVG/1.1/DTD/svg11.dtd">
<!-- Creator: CorelDRAW 2020 (64-Bit) -->
<svg xmlns="http://www.w3.org/2000/svg" xml:space="preserve" width="91.4398mm" height="91.4398mm" version="1.1" style="shape-rendering:geometricPrecision; text-rendering:geometricPrecision; image-rendering:optimizeQuality; fill-rule:evenodd; clip-rule:evenodd"
viewBox="0 0 91439.8 91439.8"
 xmlns:xlink="http://www.w3.org/1999/xlink"
 xmlns:xodm="http://www.corel.com/coreldraw/odm/2003">
 <defs>
  <style type="text/css">
   <![CDATA[
    .str0 {stroke:#FEFEFE;stroke-width:352.8;stroke-miterlimit:22.9256}
    .fil1 {fill:none}
    .fil0 {fill:#FEFEFE}
   ]]>
  </style>
 </defs>
 <g id="Слой_x0020_1">
  <metadata id="CorelCorpID_0Corel-Layer"/>
  <path class="fil0" d="M59084.4 64625.9l-1981.4 0 -422.7 0 -287.6 0 701.7 -1910.5 1981.3 0 422.8 0 287.6 0 -701.7 1910.5zm3113.2 -3376.6l-729 0 -1071.7 0 -4560.5 0 -1778.6 4842.6 729 0 1071.7 0 4560.5 0 1778.6 -4842.6zm-59185.5 4826.4l5614.3 0 447.2 -1228.1 -3744.1 0 223.6 -614.1 3744.1 0 404.7 -1111.1 -3297.8 0 -446.3 0 -1870.2 0 -1075.5 2953.3zm3169.4 -3567.4l222.6 0 3521.5 0 447.2 -1228.1 -5614.3 0 -447.2 1228.1 1870.2 0zm3437.8 3567.4l1870.2 0 933.1 -2562.3 940.8 2562.3 934.5 0 2808.2 -2562.3 -933.1 2562.3 1870.2 0 1749.1 -4802.8 -2338.1 0 -2748.4 2401.4 -996.8 -2401.4 -2340.6 0 -1749.1 4802.8zm12320.4 -2573.2l298.1 -818.7 2284.5 0c110.9,0 193,38.9 240.7,121.8 54.5,78 58.5,174.2 16.8,288.8 -40.9,112.1 -114.9,208.3 -227.5,289.9 -106.8,79.2 -217.3,118.2 -328.1,118.2l-2284.5 0zm-1060.9 -2222.3l-1746.4 4795.5 1870.2 0 426 -1169.6 2752.3 0c983.3,13.4 2127.1,-822.4 2472.7,-1811.7 376.3,-993.1 -160.6,-1824 -1152.2,-1814.2l-4622.6 0zm6945 -7.3l-1749 4802.8 1870.1 0 1749.1 -4802.8 -1870.2 0zm2860.5 7.3l-1746.4 4795.5 1870.2 0 425.9 -1169.6 1670.4 0 477 1169.6 1992 0 -556.8 -1345c367.2,-145.1 701.3,-366.8 996.1,-654.4 299,-292.4 514.6,-620.1 646.4,-981.9 376.3,-993.1 -160.6,-1824 -1152.3,-1814.2l-4622.5 0zm3639.9 1403.6c227.8,0 344.5,181.5 261.1,410.6 -40.9,112.1 -114.9,208.3 -227.5,289.9 -106.8,79.2 -217.3,118.2 -331.8,118.2l-2280.8 0 298.1 -818.7 2280.9 0zm9052.4 438.6l-404.7 1111.1 3874.5 0 404.6 -1111.1 -3874.4 0zm17686.2 2953.3l1870.2 0 468.6 -1286.6 3512.5 0 511.2 -1403.6 -3512.6 0 213 -584.8 3979.3 0 553.7 -1520.5 -5849.4 0 -1746.5 4795.5zm10618.2 0l1192.7 -3275 2223.5 0 553.7 -1520.5 -6317.3 0 -553.7 1520.5 2223.6 0 -1192.7 3275 1870.2 0zm-35728.9 0l5614.3 0 447.2 -1228.1 -3744.1 0 223.7 -614.1 3744.1 0 404.6 -1111.1 -3297.8 0 -446.3 0 -1870.2 0 -1075.5 2953.3zm3169.4 -3567.4l222.6 0 3521.5 0 447.2 -1228.1 -5614.3 0 -447.2 1228.1 1870.2 0zm10192.9 -1235.5l5614.3 0 -447.3 1228.1 -3521.4 0 -222.7 0 -223.6 614.2 3744.1 0 -1075.5 2953.3 -1870.2 0 -446.3 0 -3297.8 0 404.7 -1111.1 3744.1 0 223.6 -614 -3744.1 0 447.2 -1228.2 223.6 -614.2 447.3 -1228.1z"/>
  <rect class="fil1 str0" transform="matrix(0.392144 -0 -0.0773679 0.196072 18229.9 25358.4)" width="178646.7" height="178646.7"/>
  <polygon class="fil0" points="8412.1,60386 22252.6,25358.4 18249,25358.4 4408.4,60386 "/>
  <polygon class="fil0" points="74444.6,60386 88285.1,25358.4 84281.5,25358.4 70440.9,60386 "/>
  <path class="fil0" d="M45221.5 36287.8l2116.1 -5355.5 -4003.7 0 -20240.7 0 -2116.1 5355.5 20240.7 0 4003.7 0zm-24301.1 13184.5l1559.2 -3946.2 15087.9 0 2120.4 -5366.3 -16237.1 0 -4003.6 0 -2120.4 5366.3 -1559.3 3946.2 -2114.9 5352.3 20240.7 0 4003.7 0 3610.1 0 5152.9 0 17200.9 0 5152.9 0 2114.9 -5352.3 1559.2 -3946.2 2120.4 -5366.3 -5152.8 0 -17201 0 1530 -3872 17200.9 0 5152.8 0 2116.1 -5355.5 -4003.6 0 -1149.2 0 -18350.1 0 -2854.5 0 -1149.2 0 -2116.1 5355.5 -1529.9 3872 -2120.4 5366.3 5152.8 0 17200.9 0 -1559.2 3946.2 -17200.9 0 -5152.9 0 -3610.1 0 -4003.7 0 -15087.8 0z"/>
 </g>
</svg>
