<?xml version="1.0" encoding="UTF-8"?>
<!DOCTYPE svg PUBLIC "-//W3C//DTD SVG 1.1//EN" "http://www.w3.org/Graphics/SVG/1.1/DTD/svg11.dtd">
<!-- Creator: CorelDRAW 2020 (64-Bit) -->
<svg xmlns="http://www.w3.org/2000/svg" xml:space="preserve" width="91.4398mm" height="91.4398mm" version="1.1" style="shape-rendering:geometricPrecision; text-rendering:geometricPrecision; image-rendering:optimizeQuality; fill-rule:evenodd; clip-rule:evenodd"
viewBox="0 0 91439.8 91439.8"
 xmlns:xlink="http://www.w3.org/1999/xlink"
 xmlns:xodm="http://www.corel.com/coreldraw/odm/2003">
 <defs>
  <style type="text/css">
   <![CDATA[
    .fil0 {fill:#1DAC87}
   ]]>
  </style>
 </defs>
 <g id="Слой_x0020_1">
  <metadata id="CorelCorpID_0Corel-Layer"/>
  <polygon class="fil0" points="8412.1,60386 22252.6,25358.4 18249,25358.4 4408.4,60386 "/>
  <polygon class="fil0" points="74444.6,60386 88285.1,25358.4 84281.5,25358.4 70440.9,60386 "/>
  <path class="fil0" d="M45221.5 36287.8l2116.1 -5355.5 -4003.7 0 -20240.7 0 -2116.1 5355.5 20240.7 0 4003.7 0zm-24301.1 13184.5l1559.2 -3946.2 15087.9 0 2120.4 -5366.3 -16237.1 0 -4003.6 0 -2120.4 5366.3 -1559.3 3946.2 -2114.9 5352.3 20240.7 0 4003.7 0 3610.1 0 5152.9 0 17200.9 0 5152.9 0 2114.9 -5352.3 1559.2 -3946.2 2120.4 -5366.3 -5152.8 0 -17201 0 1530 -3872 17200.9 0 5152.8 0 2116.1 -5355.5 -4003.6 0 -1149.2 0 -18350.1 0 -2854.5 0 -1149.2 0 -2116.1 5355.5 -1529.9 3872 -2120.4 5366.3 5152.8 0 17200.9 0 -1559.2 3946.2 -17200.9 0 -5152.9 0 -3610.1 0 -4003.7 0 -15087.8 0z"/>
 </g>
</svg>
