<svg width="27" height="45" viewBox="0 0 27 45" fill="none" xmlns="http://www.w3.org/2000/svg">
<path id="Vector" d="M22.2568 0H4.74324C2.12497 0.00295082 0.00291892 2.1482 0 4.79508V40.2049C0.00291892 42.8518 2.12497 44.9971 4.74324 45H22.2568C24.875 44.9985 26.9985 42.8518 27 40.2049V4.79508C26.9971 2.1482 24.875 0.00295082 22.2568 0ZM23.3514 40.2049C23.3514 40.8157 22.861 41.3115 22.2568 41.3115H4.74324C4.13903 41.3115 3.64865 40.8157 3.64865 40.2049V4.79508C3.65011 4.18426 4.13903 3.69 4.74324 3.68852H22.2568C22.861 3.68852 23.3514 4.18426 23.3514 4.79508V40.2049ZM11.9515 35.7182C11.556 36.1077 11.3108 36.6521 11.3108 37.2526C11.3108 37.2556 11.3108 37.2585 11.3108 37.2615C11.3108 37.5684 11.375 37.8605 11.4918 38.1231L11.4859 38.1098C11.591 38.3887 11.7501 38.6262 11.9515 38.818L11.953 38.8195C12.3324 39.2193 12.8651 39.4687 13.4548 39.4687C13.4708 39.4687 13.4869 39.4687 13.5029 39.4687H13.5C13.805 39.4643 14.094 39.4111 14.3655 39.3152L14.3465 39.3211C14.6179 39.1913 14.85 39.0231 15.0456 38.8195C15.2484 38.6262 15.4075 38.3887 15.5082 38.1231L15.5126 38.1098C15.6235 37.8605 15.6877 37.5684 15.6877 37.2615C15.6877 37.2585 15.6877 37.2556 15.6877 37.2541C15.6877 36.6521 15.4411 36.1077 15.0456 35.7182C14.6457 35.3287 14.0998 35.0882 13.4985 35.0882C12.8972 35.0882 12.3514 35.3287 11.9501 35.7182H11.9515Z" fill="white"/>
</svg>
