<svg width="45" height="45" viewBox="0 0 45 45" fill="none" xmlns="http://www.w3.org/2000/svg">
<g id="Group 1261153440">
<path id="Vector" d="M26.4901 5.85693C26.4901 3.95522 25.1002 2.33901 23.22 2.05421C22.7427 1.98193 22.2573 1.98193 21.78 2.05421C19.8998 2.339 18.5099 3.95523 18.5099 5.85696V8.54626C17.4356 8.85287 16.4123 9.28019 15.4554 9.8126L13.553 7.91017C12.2083 6.56545 10.0827 6.40539 8.55174 7.53356C8.16316 7.81992 7.81992 8.16316 7.53356 8.55174C6.40538 10.0827 6.56544 12.2083 7.91016 13.553L9.81259 15.4555C9.28017 16.4123 8.85286 17.4356 8.54626 18.5099H5.85696C3.95523 18.5099 2.33901 19.8998 2.05422 21.78C1.98193 22.2573 1.98193 22.7427 2.05422 23.22C2.33901 25.1002 3.95522 26.4901 5.85694 26.4901H8.54625C8.85285 27.5644 9.28017 28.5877 9.81259 29.5446L7.91017 31.447C6.56545 32.7917 6.40539 34.9173 7.53357 36.4483C7.81992 36.8369 8.16317 37.1801 8.55175 37.4664C10.0827 38.5946 12.2083 38.4346 13.553 37.0898L15.4554 35.1874C16.4123 35.7198 17.4356 36.1472 18.5099 36.4538V39.143C18.5099 41.0448 19.8998 42.661 21.78 42.9458C22.2573 43.0181 22.7427 43.0181 23.22 42.9458C25.1002 42.661 26.4901 41.0448 26.4901 39.1431V36.4538C27.5644 36.1472 28.5877 35.7199 29.5446 35.1874L31.447 37.0899C32.7917 38.4346 34.9173 38.5946 36.4483 37.4665C36.8368 37.1801 37.1801 36.8369 37.4664 36.4483C38.5946 34.9173 38.4346 32.7917 37.0898 31.447L35.1874 29.5446C35.7198 28.5877 36.1472 27.5644 36.4538 26.4901H39.1431C41.0448 26.4901 42.661 25.1002 42.9458 23.22C43.0181 22.7427 43.0181 22.2573 42.9458 21.7801C42.661 19.8998 41.0448 18.5099 39.143 18.5099H36.4538C36.1472 17.4356 35.7198 16.4123 35.1874 15.4554L37.0899 13.553C38.4346 12.2083 38.5946 10.0827 37.4665 8.55174C37.1801 8.16316 36.8369 7.81992 36.4483 7.53356C34.9173 6.40538 32.7917 6.56544 31.447 7.91016L29.5446 9.81259C28.5877 9.28017 27.5644 8.85286 26.4901 8.54625V5.85693Z" stroke="white" stroke-width="4" stroke-linecap="round" stroke-linejoin="round"/>
<path id="Vector_2" d="M16.8056 22.5C16.8056 19.355 19.355 16.8055 22.5 16.8055C25.645 16.8055 28.1944 19.355 28.1944 22.5C28.1944 25.6449 25.645 28.1944 22.5 28.1944C19.355 28.1944 16.8056 25.6449 16.8056 22.5Z" stroke="white" stroke-width="4"/>
</g>
</svg>
